<svg width="120" height="100" viewBox="0 0 120 100" fill="none" xmlns="http://www.w3.org/2000/svg">
<path d="M115.849 50.2291C118.14 50.2291 120 52.0868 120 54.3803C120 56.6684 118.14 58.5206 115.849 58.5206H110.056V78.2961C110.056 90.2703 100.309 100 88.3309 100H79.6418C77.3455 100 75.4855 98.1424 75.4855 95.8489C75.4855 93.5608 77.3455 91.7031 79.6418 91.7031H88.3309C95.7327 91.7031 101.755 85.6942 101.755 78.2961V58.5206H87.4473V64.0283C87.5018 70.9198 81.9655 76.5528 75.0655 76.6182H44.9345C38.04 76.5528 32.5036 70.9198 32.5582 64.0283V58.5206H18.2509V78.3179C18.2509 85.6887 24.2564 91.6868 31.6364 91.6976L40.5164 91.7031C42.8073 91.7031 44.6673 93.5608 44.6673 95.8489C44.6618 98.1424 42.8073 100 40.5109 100L31.6255 99.9946C19.6745 99.9837 9.94364 90.2594 9.94364 78.3179V58.5206H4.15636C1.86545 58.5206 0 56.6684 0 54.3803C0 52.0868 1.86545 50.2291 4.15636 50.2291H115.849ZM75.0682 20.7926C78.3682 20.7926 81.5373 22.1164 83.8445 24.4753C86.1682 26.8559 87.4555 30.0538 87.45 33.3824V40.3011C87.4227 41.1128 86.7736 41.772 85.9609 41.7938H34.0336C33.2264 41.7665 32.5773 41.1073 32.5604 40.3011V33.3824C32.5009 26.4909 38.0427 20.8634 44.9373 20.7926H75.0682ZM88.3287 0.00163434C100.312 0.00163434 110.054 9.73138 110.054 21.7002V32.0128C110.054 34.3009 108.2 36.164 105.903 36.164C103.612 36.164 101.752 34.3009 101.752 32.0128V21.7002C101.752 14.3075 95.7305 8.29316 88.3287 8.29316H79.6396C77.3487 8.29316 75.4887 6.44092 75.4887 4.15285C75.4887 1.85933 77.3487 0.00163434 79.6396 0.00163434H88.3287ZM40.5147 0C42.8056 0 44.6656 1.85769 44.6656 4.15121C44.6656 6.43928 42.8111 8.29697 40.5147 8.29697L31.6293 8.30242C24.2547 8.31332 18.2547 14.3113 18.2547 21.6822V32.0112C18.2547 34.2992 16.3893 36.1624 14.0984 36.1624C11.8075 36.1624 9.94745 34.2992 9.94745 32.0112V21.6822C9.94745 9.74064 19.6729 0.0163434 31.6238 0.00544778L40.5147 0Z" fill="#0066FF"/>
</svg>
