<svg width="20" height="20" viewBox="0 0 20 20" fill="none" xmlns="http://www.w3.org/2000/svg">
<g id="Icon/Outline/adjustments">
<path id="Icon" d="M9.99992 5.00016V3.3335M9.99992 5.00016C9.07944 5.00016 8.33325 5.74635 8.33325 6.66683C8.33325 7.5873 9.07944 8.3335 9.99992 8.3335M9.99992 5.00016C10.9204 5.00016 11.6666 5.74635 11.6666 6.66683C11.6666 7.5873 10.9204 8.3335 9.99992 8.3335M4.99992 15.0002C5.92039 15.0002 6.66659 14.254 6.66659 13.3335C6.66659 12.413 5.92039 11.6668 4.99992 11.6668M4.99992 15.0002C4.07944 15.0002 3.33325 14.254 3.33325 13.3335C3.33325 12.413 4.07944 11.6668 4.99992 11.6668M4.99992 15.0002V16.6668M4.99992 11.6668V3.3335M9.99992 8.3335V16.6668M14.9999 15.0002C15.9204 15.0002 16.6666 14.254 16.6666 13.3335C16.6666 12.413 15.9204 11.6668 14.9999 11.6668M14.9999 15.0002C14.0794 15.0002 13.3333 14.254 13.3333 13.3335C13.3333 12.413 14.0794 11.6668 14.9999 11.6668M14.9999 15.0002V16.6668M14.9999 11.6668V3.3335" stroke="#5C9DFF" stroke-width="2" stroke-linecap="round" stroke-linejoin="round"/>
</g>
</svg>
