<svg width="17" height="16" viewBox="0 0 17 16" fill="none" xmlns="http://www.w3.org/2000/svg">
<g clip-path="url(#clip0_65_931)">
<path d="M7.16667 15.9111C3.38889 15.2444 0.5 11.9556 0.5 8C0.5 3.6 4.1 0 8.5 0C12.9 0 16.5 3.6 16.5 8C16.5 11.9556 13.6111 15.2444 9.83333 15.9111L9.38889 15.5556H7.61111L7.16667 15.9111Z" fill="url(#paint0_linear_65_931)"/>
<path d="M11.6112 10.2224L11.9667 8.00022H9.83341V6.44466C9.83341 5.82244 10.0556 5.33355 11.0334 5.33355H12.0556V3.28911C11.4779 3.20022 10.8556 3.11133 10.2779 3.11133C8.45564 3.11133 7.16675 4.22244 7.16675 6.22244V8.00022H5.16675V10.2224H7.16675V15.8669C7.61119 15.9558 8.05564 16.0002 8.50008 16.0002C8.94453 16.0002 9.38897 15.9558 9.83341 15.8669V10.2224H11.6112Z" fill="white"/>
</g>
<defs>
<linearGradient id="paint0_linear_65_931" x1="8.5" y1="15.4462" x2="8.5" y2="0" gradientUnits="userSpaceOnUse">
<stop stop-color="#0062E0"/>
<stop offset="1" stop-color="#19AFFF"/>
</linearGradient>
<clipPath id="clip0_65_931">
<rect width="16" height="16" fill="white" transform="translate(0.5)"/>
</clipPath>
</defs>
</svg>
