<svg width="17" height="16" viewBox="0 0 17 16" fill="none" xmlns="http://www.w3.org/2000/svg">
<path d="M15.0369 6.6945H14.4999V6.66683H8.49992V9.3335H12.2676C11.7179 10.8858 10.2409 12.0002 8.49992 12.0002C6.29092 12.0002 4.49992 10.2092 4.49992 8.00016C4.49992 5.79116 6.29092 4.00016 8.49992 4.00016C9.51959 4.00016 10.4473 4.38483 11.1536 5.01316L13.0393 3.1275C11.8486 2.01783 10.2559 1.3335 8.49992 1.3335C4.81825 1.3335 1.83325 4.3185 1.83325 8.00016C1.83325 11.6818 4.81825 14.6668 8.49992 14.6668C12.1816 14.6668 15.1666 11.6818 15.1666 8.00016C15.1666 7.55316 15.1206 7.11683 15.0369 6.6945Z" fill="#FFC107"/>
<path d="M2.60205 4.89716L4.79238 6.5035C5.38505 5.03616 6.82038 4.00016 8.50005 4.00016C9.51972 4.00016 10.4474 4.38483 11.1537 5.01316L13.0394 3.1275C11.8487 2.01783 10.2561 1.3335 8.50005 1.3335C5.93938 1.3335 3.71872 2.77916 2.60205 4.89716Z" fill="#FF3D00"/>
<path d="M8.49994 14.6669C10.2219 14.6669 11.7866 14.0079 12.9696 12.9362L10.9063 11.1902C10.2145 11.7164 9.36909 12.0009 8.49994 12.0002C6.76594 12.0002 5.29361 10.8946 4.73894 9.35156L2.56494 11.0266C3.66827 13.1856 5.90894 14.6669 8.49994 14.6669Z" fill="#4CAF50"/>
<path d="M15.037 6.69417H14.5V6.6665H8.5V9.33317H12.2677C12.0047 10.072 11.5311 10.7176 10.9053 11.1902L10.9063 11.1895L12.9697 12.9355C12.8237 13.0682 15.1667 11.3332 15.1667 7.99984C15.1667 7.55284 15.1207 7.1165 15.037 6.69417Z" fill="#1976D2"/>
</svg>
