<svg width="40" height="40" viewBox="0 0 40 40" fill="none" xmlns="http://www.w3.org/2000/svg">
<g id="visa-pay-logo">
<g id="Group">
<g id="Group_2">
<path id="Vector" d="M16.0163 14.0477L13.9834 25.9773H17.2346L19.2692 14.0477H16.0163Z" fill="white"/>
</g>
</g>
<g id="Group_3">
<g id="Group_4">
<path id="Vector_2" d="M11.2573 14.0611L8.07291 22.1967L7.7334 20.9683C7.1054 19.4882 5.32256 17.3625 3.22949 16.0229L6.14123 25.9715L9.58146 25.9656L14.7017 14.0586L11.2573 14.0611Z" fill="white"/>
</g>
</g>
<g id="Group_5">
<g id="Group_6">
<path id="Vector_3" d="M6.49914 14.9149C6.31016 14.1882 5.76243 13.9717 5.08258 13.9457H0.0418113L0 14.1832C3.92273 15.1349 6.51838 17.4278 7.59543 20.1848L6.49914 14.9149Z" fill="white"/>
</g>
</g>
<g id="Group_7">
<g id="Group_8">
<path id="Vector_4" d="M25.8585 16.3348C26.9222 16.3181 27.6932 16.5506 28.2919 16.7914L28.5854 16.9294L29.0253 14.3438C28.3814 14.1021 27.3721 13.8429 26.1127 13.8429C22.8999 13.8429 20.6354 15.461 20.6179 17.7798C20.597 19.4933 22.231 20.4499 23.4652 21.0211C24.7321 21.6064 25.1569 21.9785 25.1511 22.5012C25.141 23.2998 24.1409 23.666 23.2068 23.666C21.9048 23.666 21.2133 23.4862 20.1454 23.0414L19.7265 22.8507L19.269 25.5208C20.03 25.8544 21.434 26.1413 22.8916 26.1563C26.3092 26.1563 28.5302 24.5574 28.5537 22.0797C28.5679 20.7242 27.7007 19.6898 25.8217 18.841C24.6844 18.2874 23.9887 17.9195 23.9954 17.3609C23.9954 16.865 24.5858 16.3348 25.8585 16.3348Z" fill="white"/>
</g>
</g>
<g id="Group_9">
<g id="Group_10">
<path id="Vector_5" d="M37.3694 14.0612H34.8573C34.0771 14.0612 33.4968 14.2736 33.1539 15.0512L28.3264 25.9841H31.7407C31.7407 25.9841 32.2976 24.514 32.4239 24.192C32.7977 24.192 36.115 24.197 36.5875 24.197C36.6845 24.6135 36.9839 25.9841 36.9839 25.9841H40.0001L37.3694 14.0612ZM33.3597 21.7502C33.6272 21.0654 34.655 18.4162 34.655 18.4162C34.6374 18.4488 34.9201 17.7263 35.0881 17.2773L35.3072 18.3058C35.3072 18.3058 35.9302 21.154 36.0607 21.7502H33.3597Z" fill="white"/>
</g>
</g>
</g>
</svg>
